<?xml version="1.0" encoding="utf-8"?>
<!-- Generator: Adobe Illustrator 17.1.0, SVG Export Plug-In . SVG Version: 6.00 Build 0)  -->
<!DOCTYPE svg PUBLIC "-//W3C//DTD SVG 1.1//EN" "http://www.w3.org/Graphics/SVG/1.1/DTD/svg11.dtd">
<svg version="1.1" id="Layer_1" xmlns:sketch="http://www.bohemiancoding.com/sketch/ns"
	 xmlns="http://www.w3.org/2000/svg" xmlns:xlink="http://www.w3.org/1999/xlink" x="0px" y="0px" viewBox="0 0 17 17"
	 enable-background="new 0 0 17 17" xml:space="preserve">
<path fill="#949AA2" d="M17,0.4C17,0.4,17,0.4,17,0.4c0-0.1-0.1-0.2-0.1-0.3C16.8,0.1,16.7,0,16.6,0c0,0,0,0-0.1,0
	c-0.1,0-0.2,0-0.3,0c0,0,0,0,0,0l-16,7C0.1,7.1,0,7.2,0,7.4s0.1,0.4,0.3,0.5L6,11l3.1,5.8C9.2,16.9,9.4,17,9.5,17c0,0,0,0,0,0
	c0.2,0,0.4-0.1,0.4-0.3l7-16c0,0,0,0,0,0C17,0.6,17,0.5,17,0.4z M14.3,2l-8,8L1.7,7.5L14.3,2z M9.5,15.3L7,10.7l8-8L9.5,15.3z"/>
</svg>
