<?xml version="1.0" standalone="no"?>
<svg id="back-Page%201" viewBox="0 0 512 512" style="background-color:#ffffff00" version="1.1"
xmlns="http://www.w3.org/2000/svg" xmlns:xlink="http://www.w3.org/1999/xlink" xml:space="preserve"	x="0px" y="0px">
<path d="M 62 256 C 62 148.8554 148.8554 62 256 62 C 363.1446 62 450 148.8554 450 256 C 450 363.1446 363.1446 450 256 450 C 148.8554 450 62 363.1446 62 256 ZM 0 256 C 0 397.3867 114.6133 512 256 512 C 397.3867 512 512 397.3867 512 256 C 512 114.6133 397.3867 0 256 0 C 114.6133 0 0 114.6133 0 256 Z" fill="#ffffff"/>		<path d="M 179.33 237.535 C 169.7809 248.726 169.684 265.5244 179.7121 276.8591 L 265.8527 374.2233 C 276.8315 386.6326 295.7907 387.7922 308.2 376.8134 L 309.6978 375.4882 C 322.1071 364.5094 323.2667 345.5501 312.2879 333.1409 L 243.98 255.935 L 311.2879 179.8591 C 322.2667 167.4498 321.1071 148.4906 308.6978 137.5118 L 307.2 136.1866 C 294.7907 125.2078 275.8315 126.3674 264.8527 138.7767 L 179.33 237.535 Z" fill="#ffffff"/>
</svg>
