<?xml version="1.0" encoding="utf-8"?>
<!-- Generator: Adobe Illustrator 17.1.0, SVG Export Plug-In . SVG Version: 6.00 Build 0)  -->
<!DOCTYPE svg PUBLIC "-//W3C//DTD SVG 1.1//EN" "http://www.w3.org/Graphics/SVG/1.1/DTD/svg11.dtd">
<svg version="1.1" id="Layer_1" xmlns:sketch="http://www.bohemiancoding.com/sketch/ns"
	 xmlns="http://www.w3.org/2000/svg" xmlns:xlink="http://www.w3.org/1999/xlink" x="0px" y="0px" viewBox="0 0 18 18"
	 enable-background="new 0 0 18 18" xml:space="preserve">
<title>x</title>
<desc>Created with Sketch.</desc>
<path d="M17.7,16.3c0.4,0.4,0.4,1,0,1.4C17.5,17.9,17.2,18,17,18c-0.3,0-0.5-0.1-0.7-0.3L9,10.4l-7.3,7.3C1.5,17.9,1.2,18,1,18
	c-0.3,0-0.5-0.1-0.7-0.3c-0.4-0.4-0.4-1,0-1.4L7.6,9L0.3,1.7c-0.4-0.4-0.4-1,0-1.4c0.4-0.4,1-0.4,1.4,0L9,7.6l7.3-7.3
	c0.4-0.4,1-0.4,1.4,0c0.4,0.4,0.4,1,0,1.4L10.4,9L17.7,16.3z"/>
</svg>
