<?xml version="1.0" encoding="utf-8"?>
<!-- Generator: Adobe Illustrator 16.0.4, SVG Export Plug-In . SVG Version: 6.00 Build 0)  -->
<!DOCTYPE svg PUBLIC "-//W3C//DTD SVG 1.1//EN" "http://www.w3.org/Graphics/SVG/1.1/DTD/svg11.dtd">
<svg version="1.1" id="Layer_1" xmlns="http://www.w3.org/2000/svg" xmlns:xlink="http://www.w3.org/1999/xlink" x="0px" y="0px"
	 width="24.229px" height="32.888px" viewBox="0 0 24.229 32.888" enable-background="new 0 0 24.229 32.888" xml:space="preserve">
<g>
	<path fill="#B4B6BA" d="M24.228,6.833c0-0.545-0.122-0.85-0.341-1.066s-5.035-5.002-5.309-5.271S18.086,0,17.758,0S1.698,0,1.698,0
		C0.762,0,0,0.76,0,1.696v29.495c0,0.935,0.762,1.696,1.698,1.696H22.53c0.938,0,1.698-0.762,1.698-1.696
		C24.229,31.191,24.228,7.378,24.228,6.833z M17.378,8.549h4.623v22.113H2.228V2.226h13.45V6.85
		C15.678,7.786,16.439,8.549,17.378,8.549z"/>
</g>
</svg>
