<?xml version="1.0" encoding="utf-8"?>
<!-- Generator: Adobe Illustrator 17.1.0, SVG Export Plug-In . SVG Version: 6.00 Build 0)  -->
<!DOCTYPE svg PUBLIC "-//W3C//DTD SVG 1.1//EN" "http://www.w3.org/Graphics/SVG/1.1/DTD/svg11.dtd">
<svg version="1.1" id="Layer_1" xmlns:sketch="http://www.bohemiancoding.com/sketch/ns"
	 xmlns="http://www.w3.org/2000/svg" xmlns:xlink="http://www.w3.org/1999/xlink" x="0px" y="0px" viewBox="0 0 30 30"
	 enable-background="new 0 0 30 30" xml:space="preserve">
<path d="M12.3,0.1c1.8,0,3.7,0,5.5,0c0.2,1,0.3,2.1,0.5,3.1c0,0.1,0.1,0.2,0.2,0.2C19.3,3.7,20,4,20.8,4.3c0.1,0,0.2,0,0.3,0
	c0.5-0.3,1-0.7,1.5-1c0.4-0.3,0.8-0.5,1.2-0.8c1.3,1.3,2.6,2.6,3.9,3.9C27,7.3,26.4,8.1,25.8,9c-0.1,0.1-0.1,0.3,0,0.4
	c0.3,0.7,0.6,1.5,0.9,2.2c0,0.1,0.2,0.2,0.3,0.2c0.5,0.1,1,0.2,1.5,0.2c0.6,0.1,1.1,0.2,1.7,0.3c0,1.9,0,3.7,0,5.5
	C29,18,28,18.1,27,18.3c-0.1,0-0.2,0.1-0.3,0.2c-0.3,0.7-0.6,1.5-0.9,2.2c-0.1,0.2-0.1,0.3,0,0.4c0.6,0.8,1.1,1.6,1.7,2.4
	c0.1,0.1,0.1,0.2,0.1,0.2c-1.3,1.3-2.6,2.6-3.9,3.9c-0.8-0.6-1.7-1.2-2.6-1.8c-0.2-0.1-0.3-0.1-0.4,0c-0.7,0.3-1.4,0.6-2.2,0.9
	c-0.1,0-0.2,0.1-0.2,0.2c-0.1,0.5-0.2,1-0.2,1.4c-0.1,0.6-0.2,1.2-0.3,1.7c-1.8,0-3.7,0-5.5,0c0-0.1,0-0.2-0.1-0.3
	c-0.2-0.9-0.3-1.8-0.5-2.7c0-0.2-0.1-0.3-0.3-0.3c-0.7-0.3-1.4-0.5-2.1-0.8c-0.3-0.1-0.4-0.1-0.7,0c-0.8,0.6-1.7,1.2-2.5,1.8
	c-1.3-1.3-2.6-2.6-3.9-3.9c0-0.1,0.1-0.2,0.2-0.2c0.6-0.8,1.1-1.6,1.7-2.3c0.1-0.1,0.1-0.2,0-0.4c-0.3-0.7-0.6-1.5-0.9-2.2
	c0-0.1-0.1-0.2-0.2-0.2c-1.1-0.2-2.1-0.4-3.2-0.5c0-1.8,0-3.7,0-5.5c1-0.2,2.1-0.3,3.1-0.5c0.2,0,0.3-0.1,0.3-0.3
	c0.3-0.7,0.5-1.4,0.8-2.1c0.1-0.3,0.1-0.4-0.1-0.6C3.7,8.1,3.1,7.3,2.5,6.4c1.3-1.3,2.6-2.6,3.9-3.9C7.3,3.2,8.1,3.8,9,4.4
	c0.1,0.1,0.3,0.1,0.4,0.1c0.8-0.3,1.5-0.6,2.2-0.9c0.1,0,0.2-0.1,0.2-0.2C12,2.2,12.1,1.1,12.3,0.1z M15,20.8c3.2,0,5.8-2.5,5.8-5.7
	c0-3.1-2.6-5.8-5.7-5.8c-3.2,0-5.8,2.6-5.8,5.7C9.3,18.2,11.9,20.8,15,20.8z"/>
</svg>
