<?xml version="1.0" encoding="utf-8"?>
<!-- Generator: Adobe Illustrator 17.1.0, SVG Export Plug-In . SVG Version: 6.00 Build 0)  -->
<!DOCTYPE svg PUBLIC "-//W3C//DTD SVG 1.1//EN" "http://www.w3.org/Graphics/SVG/1.1/DTD/svg11.dtd">
<svg version="1.1" id="Layer_1" xmlns:sketch="http://www.bohemiancoding.com/sketch/ns"
	 xmlns="http://www.w3.org/2000/svg" xmlns:xlink="http://www.w3.org/1999/xlink" x="0px" y="0px" viewBox="0 0 266 321"
	 enable-background="new 0 0 266 321" xml:space="preserve">
<path fill="#E1E4E6" d="M264.3,62.7c-1.1,1.1-2.5,1.6-3.9,1.6c-1.4,0-2.8-0.5-3.9-1.6c-32.9-33-76.7-51.2-123.3-51.2c0,0,0,0,0,0
	c-46.6,0-90.4,18.2-123.3,51.2c-2.1,2.1-5.6,2.2-7.8,0c-2.1-2.1-2.2-5.6,0-7.8c35-35.1,81.6-54.4,131.1-54.4c0,0,0,0,0,0
	c49.5,0,96.1,19.3,131.1,54.4C266.5,57.1,266.5,60.5,264.3,62.7z M87,135.5c13.5-13.6,31.5-21,50.6-21c0,0,0,0,0,0
	c19.1,0,37.1,7.5,50.6,21c1.1,1.1,2.5,1.6,3.9,1.6c1.4,0,2.8-0.5,3.9-1.6c2.1-2.1,2.2-5.6,0-7.8c-15.6-15.6-36.3-24.2-58.4-24.2
	c0,0,0,0,0,0c-22.1,0-42.8,8.6-58.4,24.2c-2.1,2.1-2.1,5.6,0,7.8C81.4,137.7,84.8,137.7,87,135.5z M135.4,52
	C99.6,52,66,66,40.7,91.3c-2.1,2.2-2.1,5.6,0,7.8c2.1,2.1,5.6,2.1,7.8,0c23.2-23.3,54.1-36.1,87-36.1c32.9,0,63.7,12.8,87,36.1
	c1.1,1.1,2.5,1.6,3.9,1.6c1.4,0,2.8-0.5,3.9-1.6c2.2-2.1,2.2-5.6,0-7.8C204.9,66,171.2,52,135.4,52z M230,184.4v99
	c0,2.3-1.5,4.4-3.7,5.2l-90,31.9c-0.6,0.2-1.2,0.3-1.8,0.3c-0.6,0-1.2-0.1-1.8-0.3l-90-31.9c-2.2-0.8-3.7-2.9-3.7-5.2v-99
	c0-3,2.5-5.5,5.5-5.5c0.1,0,0.2,0,0.3,0l88.2-23.5c0.9-0.2,1.9-0.2,2.8,0l88.2,23.5c0.1,0,0.2,0,0.3,0
	C227.5,178.9,230,181.4,230,184.4z M50,188.9v7.2l84.5,22.4l84.5-22.4v-7.2l-84.5-22.4L50,188.9z M50,279.5l82.6,29.3v-85.5
	L50,201.3V279.5z M219,279.5v-78.2L137.6,223v85.4L219,279.5z"/>
</svg>
