<?xml version="1.0" encoding="utf-8"?>
<!-- Generator: Adobe Illustrator 17.1.0, SVG Export Plug-In . SVG Version: 6.00 Build 0)  -->
<!DOCTYPE svg PUBLIC "-//W3C//DTD SVG 1.1//EN" "http://www.w3.org/Graphics/SVG/1.1/DTD/svg11.dtd">
<svg version="1.1" id="Layer_1" xmlns:sketch="http://www.bohemiancoding.com/sketch/ns"
	 xmlns="http://www.w3.org/2000/svg" xmlns:xlink="http://www.w3.org/1999/xlink" x="0px" y="0px" viewBox="0 0 348 345"
	 enable-background="new 0 0 348 345" xml:space="preserve">
<path fill="#E1E4E6" d="M222.6,285.5H19c-7.4,0-13.5-6.1-13.5-13.5V19c0-7.4,6.1-13.5,13.5-13.5h253c7.4,0,13.5,6.1,13.5,13.5v202.2
	c-0.2,0-0.3,0-0.5,0c-3.6,0-7.1,0.3-10.5,0.9V19c0-1.4-1.1-2.5-2.5-2.5H19c-1.4,0-2.5,1.1-2.5,2.5v253c0,1.4,1.1,2.5,2.5,2.5h204.1
	c-0.4,2.8-0.6,5.6-0.6,8.5C222.5,283.8,222.5,284.7,222.6,285.5z M325.4,277h-33.9v-32.9c0-3.9-3.1-7-7-7s-7,3.1-7,7V277h-32
	c-3.9,0-7,3.1-7,7s3.1,7,7,7h32v33c0,3.9,3.1,7,7,7s7-3.1,7-7v-33h33.9c3.9,0,7-3.1,7-7S329.3,277,325.4,277z M187.5,146
	c0,22.9-18.6,41.5-41.5,41.5s-41.5-18.6-41.5-41.5s18.6-41.5,41.5-41.5S187.5,123.1,187.5,146z M176.5,146
	c0-16.8-13.7-30.5-30.5-30.5s-30.5,13.7-30.5,30.5s13.7,30.5,30.5,30.5S176.5,162.8,176.5,146z"/>
</svg>
