<?xml version="1.0" encoding="utf-8"?>
<!-- Generator: Adobe Illustrator 17.1.0, SVG Export Plug-In . SVG Version: 6.00 Build 0)  -->
<!DOCTYPE svg PUBLIC "-//W3C//DTD SVG 1.1//EN" "http://www.w3.org/Graphics/SVG/1.1/DTD/svg11.dtd">
<svg version="1.1" id="Layer_1" xmlns:sketch="http://www.bohemiancoding.com/sketch/ns"
	 xmlns="http://www.w3.org/2000/svg" xmlns:xlink="http://www.w3.org/1999/xlink" x="0px" y="0px" viewBox="0 0 20 20"
	 enable-background="new 0 0 20 20" xml:space="preserve">
<title>Stroke 4342 + Stroke 4343</title>
<desc>Created with Sketch.</desc>
<path fill="#79808A" d="M19.3,17.9l-5.2-5.2c1-1.3,1.6-3,1.6-4.8c0-4.3-3.5-7.9-7.9-7.9S0,3.5,0,7.9s3.5,7.9,7.9,7.9
	c1.8,0,3.5-0.6,4.8-1.7l5.2,5.2c0.2,0.2,0.5,0.3,0.7,0.3s0.5-0.1,0.7-0.3C19.7,18.9,19.7,18.3,19.3,17.9z M2,7.9C2,4.6,4.6,2,7.9,2
	c3.2,0,5.9,2.6,5.9,5.9c0,3.2-2.6,5.9-5.9,5.9C4.6,13.7,2,11.1,2,7.9z"/>
</svg>
