<?xml version="1.0" encoding="utf-8"?>
<!-- Generator: Adobe Illustrator 17.1.0, SVG Export Plug-In . SVG Version: 6.00 Build 0)  -->
<!DOCTYPE svg PUBLIC "-//W3C//DTD SVG 1.1//EN" "http://www.w3.org/Graphics/SVG/1.1/DTD/svg11.dtd">
<svg version="1.1" id="Layer_1" xmlns:sketch="http://www.bohemiancoding.com/sketch/ns"
	 xmlns="http://www.w3.org/2000/svg" xmlns:xlink="http://www.w3.org/1999/xlink" x="0px" y="0px" viewBox="0 0 280 291"
	 enable-background="new 0 0 280 291" xml:space="preserve">
<path id="Users" sketch:type="MSPage" d="M43.7,168.5H24.9l-0.1-0.4c-0.3-2.1-0.5-4.1-0.7-6.1c-0.4-4-0.7-7.9-0.9-11.9l0-0.5H42
	l0,0.5c0.2,3.6,0.5,7.3,0.8,10.9c0.2,2.3,0.5,4.6,0.8,7L43.7,168.5z M25.8,167.5h16.8c-0.3-2.2-0.5-4.3-0.7-6.4
	c-0.3-3.5-0.6-7-0.8-10.5H24.4c0.2,3.7,0.5,7.5,0.8,11.3C25.4,163.7,25.6,165.5,25.8,167.5z M48.6,192.9H29.2l-0.1-0.4
	c-1.4-5.7-2.5-11.8-3.4-18l-0.1-0.6h18.9l0.1,0.4c1,6.2,2.3,12.2,3.8,17.9L48.6,192.9z M30,191.9h17.3c-1.4-5.4-2.6-11.1-3.6-16.9
	H26.8C27.7,180.8,28.7,186.5,30,191.9z M80.3,219.2H49.8l-0.1-0.3c-0.3-0.8-0.6-1.6-1-2.5c-1.9-4.9-3.9-10.1-5.3-15.5l-0.1-0.6h30.3
	l0.1,0.4c1.7,6.2,3.8,12.2,6.2,17.9L80.3,219.2z M50.5,218.2h28.3c-2.3-5.4-4.3-11.1-5.9-16.9H44.6c1.3,5.2,3.2,10.1,5.1,14.8
	C49.9,216.8,50.2,217.5,50.5,218.2z M74.2,241.8H50.5l-0.1-0.2c-3.3-4.6-6.4-9.7-9.1-15.1l-0.4-0.7h21.4l0.1,0.2
	c3.3,5.4,7,10.5,11,14.9L74.2,241.8z M51,240.8h20.9c-3.7-4.2-7.1-8.9-10.2-14H42.5C45.1,231.8,47.9,236.5,51,240.8z M69.3,168.5
	H50.4l-0.1-0.4c-0.3-2.1-0.5-4.1-0.7-6.1c-0.4-3.9-0.7-7.9-0.9-11.9l0-0.5h18.7l0,0.5c0.2,3.6,0.5,7.3,0.8,10.9
	c0.2,2.3,0.5,4.6,0.8,7L69.3,168.5z M51.3,167.5h16.8c-0.3-2.2-0.5-4.3-0.7-6.4c-0.3-3.5-0.6-7-0.8-10.5H49.9
	c0.2,3.7,0.5,7.5,0.8,11.3C50.9,163.7,51.1,165.5,51.3,167.5z M74.1,192.9H54.7l-0.1-0.4c-1.4-5.7-2.5-11.8-3.4-18l-0.1-0.6h18.9
	l0.1,0.4c1,6.2,2.3,12.2,3.8,17.9L74.1,192.9z M55.5,191.9h17.3c-1.4-5.4-2.6-11.1-3.6-16.9H52.3C53.2,180.8,54.3,186.5,55.5,191.9z
	 M101.6,241.8H79.2l-0.1-0.2c-0.8-1.2-1.8-2.4-2.7-3.6c-2.6-3.4-5.6-7.3-7.7-11.5l-0.4-0.7h21.4l0.1,0.2c3.3,5.4,7,10.5,11,14.9
	L101.6,241.8z M79.8,240.8h19.6c-3.7-4.2-7.1-8.9-10.2-14H69.9c2,3.8,4.8,7.4,7.2,10.6C78.1,238.5,78.9,239.7,79.8,240.8z M70.3,117
	H33.6l0.1-0.6c0.7-6,1.8-11.8,3.2-17.4l0.1-0.4h36.3l-0.1,0.6c-1.2,5.6-2.1,11.4-2.7,17.2L70.3,117z M34.8,116h34.7
	c0.6-5.6,1.4-11,2.5-16.3H37.7C36.5,104.9,35.5,110.4,34.8,116z M105,241.8c-17.4-18.8-28-46-31.5-80.8c-4.5-45.3,4-81,25.4-106.3
	l-1.5-1.3c-21.7,25.7-30.4,61.9-25.9,107.8c3.5,35.3,14.3,62.9,32,82L105,241.8z M128.9,274.9L128.9,274.9c-0.3,0-6.6,0-9.9-1.8
	c-1.4-0.7-5.6-2.9-8.4-12c-1-3.2,0.5-10.8,3-23.4c4.5-22.6,11.2-56.9,9.4-95.4C120.5,92.6,106,41.7,105.4,39.6
	c-0.1-0.3-0.3-0.8-0.4-1.3c-1-2.7-2.9-7.9-1.2-14.2c2.1-7.6,5.5-9.5,7.1-10.4c3.2-1.8,11.1-2.6,12-2.7c16.1-0.7,31.8-1.1,46.7-1.1
	c40.1,0,62.1,2.7,62.3,2.7c0.2,0,7.9,0.6,13.5,5.1c10.5,8.4,31,44.9,33.7,122.7c2.3,64.7-11.7,108.3-21.9,117.4
	c-0.1,0.1-0.2,0.2-0.4,0.4c-6,5.7-11.3,8.9-15.6,9.5C206.5,273.9,129.6,274.9,128.9,274.9L128.9,274.9z M169.7,12.9
	c-14.9,0-30.5,0.4-46.5,1.1c-2.2,0.2-8.5,1.1-10.8,2.4c-1.3,0.7-3.9,2.2-5.7,8.6c-1.5,5.4,0.1,9.7,1.1,12.3c0.2,0.6,0.4,1.1,0.5,1.5
	c0.6,2.2,15.2,53.4,17.6,103.5c1.9,38.9-5.2,74.7-9.4,96.1c-2.1,10.9-3.8,19.5-3.1,22c2.4,7.9,5.8,9.6,6.9,10.2
	c2.2,1.2,6.9,1.4,8.5,1.4c1.2,0,77.5-1,111.9-7.3c3.8-0.5,8.5-3.5,14-8.7c0.2-0.2,0.4-0.4,0.5-0.4c8.5-7.6,23.3-49,20.9-115
	c-1.2-35.3-6.2-65.1-14.6-88.6c-6.4-18-13.7-28.4-18-31.8c-4.9-3.9-11.8-4.4-11.9-4.4C231.4,15.5,209.5,12.9,169.7,12.9z
	 M82.1,290.4c4.5-1.2,37.7-3,64.4-4.4c23-1.2,37.2-2,40-2.5c27.4-3.5,47.4-14.7,47.6-14.8l-1.5-2.6c-0.2,0.1-19.8,11.1-46.5,14.5
	l-0.1,0c-2.6,0.5-20.6,1.5-39.6,2.5c-28.2,1.5-60.2,3.2-64.9,4.5c-1.2,0.3-13.2-0.5-28.1-11.3c-19.1-13.9-43.1-44.7-48.8-112.7
	C1,123.7,3.6,68.4,34.9,31.1C52.7,9.9,72,4.1,74,3.5c4.9,0,94.4,0.9,103.4,1.7c12.4,1.1,45.3,5.6,49.6,9.6l2-2.2
	c-6.3-5.8-50.9-10.3-51.4-10.4c-9.3-0.8-100-1.7-103.8-1.7l-0.2,0l-0.2,0C72.6,0.8,52,6.1,32.7,29C0.6,67.1-2.1,123.4,1.4,163.8
	c5.8,69.1,30.4,100.6,50.1,114.8c13.1,9.5,24.6,11.9,29.2,11.9C81.2,290.6,81.7,290.5,82.1,290.4z M79,281.4l-0.2-0.1
	C61.1,275.5,19,252.1,11.1,163c-4-45.4,2.3-82.6,18.8-110.6c13.3-22.6,30.4-34.3,42.4-40.2l0.3-0.1c7.4-1.3,13.7,2.1,18.1,9.7
	c2.8,4.8,3.8,9.6,3.8,9.8c0.1,0.3,5.9,27.2,7.2,35.1c6.1,37.7,7.9,69,8.3,88.6c0.5,21.2-0.6,33.7-0.6,33.9
	c-1.3,41.6-6.2,69.9-8.3,75.2c-1.6,3.8-7.8,16.3-21.9,17.1L79,281.4z M73.1,14.1c-11.8,5.7-28.5,17.2-41.5,39.3
	C15.3,81,9.1,117.8,13.1,162.8c7.7,87.6,48.7,110.7,66.2,116.6c12.8-0.8,18.5-12.4,20-15.9c2.1-5.1,6.8-33.1,8.2-74.5
	c0-0.5,3.9-50.1-7.7-122c-1.3-7.8-7.1-34.7-7.2-35c0-0.2-3.9-18.2-16.8-18.2C74.8,13.9,73.9,13.9,73.1,14.1z M94,273.9l-0.1-1
	l-12.5,1c-20.1-8.4-54.7-34-61.8-111.6C11.2,70,50.2,33.5,74.3,20h13.6v-1H74l-0.1,0.1C49.6,32.7,10.2,69.4,18.7,162.4
	c7.1,78.3,42.2,104.1,62.5,112.5l0.1,0L94,273.9z M38.5,139.3H25.6l0-0.5c0-4.1,0.1-8.2,0.3-12l0-0.5h13l0,0.5
	c-0.2,3.9-0.4,7.9-0.4,11.9L38.5,139.3z M26.6,138.3h10.9c0-3.7,0.1-7.4,0.3-11h-11C26.7,130.8,26.6,134.5,26.6,138.3z M66.4,139.3
	H53.4l0-0.5c0-4.1,0.1-8.2,0.3-12l0-0.5h13l0,0.5c-0.2,3.9-0.4,7.9-0.4,11.9L66.4,139.3z M54.4,138.3h10.9c0-3.7,0.1-7.4,0.3-11h-11
	C54.5,130.8,54.4,134.5,54.4,138.3z M50.1,141.8H42l0-0.5c0-5.9,0-11.6,0.2-17.1l0-0.5h8.2l0,0.5c-0.1,5.6-0.2,11.4-0.2,17.1
	L50.1,141.8z M43,140.8h6.1c0-5.4,0.1-10.8,0.2-16.1h-6.2C43,129.9,43,135.3,43,140.8z M45.7,82.8H31.3l0.2-0.7
	c1.4-4.1,3-8.2,4.8-12l0.1-0.3h15.4l-0.4,0.7c-2.1,3.7-4,7.8-5.7,11.9L45.7,82.8z M32.7,81.8H45c1.6-3.8,3.3-7.5,5.2-11H37.1
	C35.5,74.3,34,78,32.7,81.8z M76.6,82.8H62.2l0.2-0.7c1.4-4.1,3-8.2,4.8-12l0.1-0.3h15.4l-0.4,0.7c-2.1,3.7-4,7.8-5.7,11.9
	L76.6,82.8z M63.6,81.8h12.4c1.6-3.8,3.3-7.5,5.2-11H68C66.4,74.3,64.9,78,63.6,81.8z M71.4,41H56l0.8-0.9c4.4-4.5,9.2-8.5,14.3-12
	l0.1-0.1l15.6,0l-1,0.9c-1.6,1.3-3.3,2.6-4.9,3.8c-3.2,2.4-6.6,4.9-9.3,8.1L71.4,41z M58.4,40H71c2.7-3.1,6.1-5.6,9.3-8
	c1.3-0.9,2.5-1.9,3.8-2.9l-12.5,0C66.9,32.2,62.4,35.9,58.4,40z M89.7,41H74.3l0.8-0.9c4.4-4.5,9.2-8.5,14.3-12l0.1-0.1l3.3,0
	l0.1,0.3c0.7,2,1,3.3,1,3.4l0.9,4.3l-0.2,0.2c-2,1.6-3.5,3.1-4.8,4.6L89.7,41z M76.7,40h12.6c1.2-1.4,2.7-2.8,4.5-4.3L93,31.9
	c0,0-0.3-1.2-0.8-2.9l-2.3,0C85.2,32.2,80.7,35.9,76.7,40z M55.3,64.3H39.2l0.4-0.7c3.2-5.8,6.8-11.3,10.8-16.3l0.2-0.2h18.9
	l-0.9,0.9c-4.9,4.8-9.3,10.2-13.2,16.1L55.3,64.3z M40.9,63.3h13.8c3.6-5.5,7.7-10.6,12.3-15.2H51.1C47.3,52.7,43.9,57.8,40.9,63.3z
	 M85.9,64.3H69.9l0.4-0.7c3.2-5.8,6.8-11.3,10.8-16.3l0.2-0.2h16l0.5,2.4l-0.2,0.2C93.3,54,89.5,58.9,86.1,64L85.9,64.3z M71.6,63.3
	h13.8c3.3-5.1,7.1-9.8,11.3-14.1l-0.2-1.1H81.7C78,52.7,74.6,57.8,71.6,63.3z M100.9,263.2H72.2l-0.1-0.1c-6-4.1-11.6-9.2-16.6-15.1
	l-0.7-0.8h24.9l0.1,0.1c6.5,5.9,13.7,10.6,21.3,14l0.4,0.2l-0.1,0.4c-0.1,0.3-0.2,0.7-0.3,0.9L100.9,263.2z M72.5,262.2h27.7
	c0,0,0-0.1,0-0.2c-7.5-3.4-14.6-8.1-21-13.9H56.9C61.7,253.6,66.9,258.3,72.5,262.2z M102.1,258.9l-0.6-0.4
	c-5-2.9-10.6-6.4-14.1-10.5l-0.7-0.8h17.5l-0.1,0.6c-0.6,4-1.2,7.5-1.8,10.4L102.1,258.9z M88.9,248.2c3.3,3.5,8.1,6.5,12.5,9.1
	c0.5-2.6,1.1-5.6,1.6-9.1H88.9z M138.1,270.4L138.1,270.4c-0.3,0-6.7,0-9.2-1.6l-0.2-0.1c-1.5-0.9-5-3.2-7.4-10.9
	c-0.9-2.9,0.6-10.6,2.9-22.3c4.1-20.7,10.9-55.4,9.1-92.9c-2.3-48.6-16.3-98.1-16.9-100.2c-0.1-0.3-0.3-0.8-0.4-1.3
	c-0.9-2.6-2.7-7.4-1.1-13.2c1.4-5.7,3.7-7.7,6.4-9.5c2.7-1.9,10.9-2.5,11.3-2.6c15.4-0.7,30.1-1.1,43.7-1.1
	c36.4,0,53.1,2.6,53.2,2.6c0.2,0,7,0.4,12.5,4.7c4.3,3.4,11.7,13.7,18,31.8c8.2,23.1,12.9,52.3,14.1,86.8
	c2.2,62.5-11.1,104.6-20.9,113.4c-0.1,0.1-0.2,0.2-0.4,0.4c-5.6,5.4-10.5,8.4-14.5,9C204.9,269.4,138.7,270.4,138.1,270.4
	L138.1,270.4z M176.2,15.6c-13.5,0-28.2,0.4-43.6,1.1c-0.1,0-8.3,0.7-10.8,2.4c-2.6,1.8-4.6,3.6-6,9c-1.5,5.5,0.1,9.9,1.1,12.6
	c0.2,0.5,0.4,1,0.5,1.4c0.6,2.1,14.6,51.7,16.9,100.4c1.8,37.7-5,72.4-9.1,93.2c-2.2,11.1-3.8,19.1-2.9,21.8
	c2.3,7.4,5.5,9.5,6.9,10.4l0.2,0.1c2.2,1.4,8.4,1.5,8.6,1.5c0.8,0,66.8-1,100.1-7.1c3.8-0.5,8.5-3.5,14-8.7c0.2-0.2,0.3-0.3,0.4-0.4
	c9.6-8.6,22.7-50.3,20.5-112.6c-1.2-34.4-5.9-63.5-14.1-86.5c-6.3-17.8-13.5-28-17.7-31.3c-5.3-4.1-11.9-4.5-12-4.5
	C229.1,18.2,212.5,15.6,176.2,15.6z M140.3,233.1c-1.1,0-2.2-0.5-2.9-1.4c-0.7-0.9-1-2-0.7-3.1c3.8-16.3,14.5-77.3-6.6-177.7
	c-0.2-1.1,0-2.2,0.7-3.1c0.7-0.9,1.7-1.4,2.8-1.4c4.7,0,13.7-0.1,26.7-0.1c29.9,0,72.7,0.1,85.1,0.1c1.6,0,3,1,3.5,2.5
	c4.9,14,28.4,88.2,6.8,175.7c-0.4,1.5-1.7,2.7-3.3,2.8c-14.8,1.1-95.9,4.8-112,5.6L140.3,233.1z M160.4,47.4c-13,0-22,0-26.7,0.1
	c-0.8,0-1.6,0.4-2.1,1c-0.5,0.6-0.7,1.4-0.5,2.2c21.2,100.6,10.4,161.7,6.6,178.1c-0.2,0.8,0,1.6,0.5,2.3c0.5,0.6,1.3,1,2.1,1l0.1,0
	c16.1-0.7,97.2-4.5,111.9-5.6c1.2-0.1,2.1-0.9,2.4-2c21.5-87.2-1.9-161.2-6.8-175.1c-0.4-1.1-1.4-1.8-2.5-1.8
	C233.1,47.5,190.4,47.4,160.4,47.4z M174.6,258.6c-0.6,0-1.1-0.3-1.4-0.7c-0.3-0.5-0.4-1-0.3-1.6l2.7-8.2c0.2-0.7,0.9-1.2,1.6-1.2
	l34.6-1.1c0.6,0,1.2,0.3,1.5,0.7c0.3,0.4,0.4,1,0.3,1.5l-2.4,7.9c-0.2,0.7-0.9,1.2-1.6,1.3L174.6,258.6z M211.9,246.7l-34.7,1.1
	c-0.3,0-0.6,0.2-0.7,0.5l-2.7,8.2c-0.1,0.2,0,0.5,0.1,0.7c0.1,0.2,0.4,0.3,0.6,0.3v0.5l0-0.5l34.9-1.5c0.3,0,0.6-0.2,0.7-0.6
	l2.4-7.9c0.1-0.2,0-0.5-0.1-0.7C212.4,246.8,212.2,246.7,211.9,246.7z"/>
</svg>
