<?xml version="1.0" encoding="utf-8"?>
<!-- Generator: Adobe Illustrator 17.1.0, SVG Export Plug-In . SVG Version: 6.00 Build 0)  -->
<!DOCTYPE svg PUBLIC "-//W3C//DTD SVG 1.1//EN" "http://www.w3.org/Graphics/SVG/1.1/DTD/svg11.dtd">
<svg version="1.1" id="Layer_1" xmlns:sketch="http://www.bohemiancoding.com/sketch/ns"
	 xmlns="http://www.w3.org/2000/svg" xmlns:xlink="http://www.w3.org/1999/xlink" x="0px" y="0px" viewBox="0 0 28 22"
	 enable-background="new 0 0 28 22" xml:space="preserve">
<title>Imported Layers 2</title>
<desc>Created with Sketch.</desc>
<path fill="#009CA6" d="M27,19.9c-5.8,0-10.7-1.8-13.7-5.1c-2.6-2.7-3.9-6.5-4-11.1l4.8,5.6c0.4,0.4,1,0.5,1.4,0.1
	c0.4-0.4,0.5-1,0.1-1.4L9.2,0.4c0,0,0,0,0,0c0,0,0,0,0,0s0,0,0,0C9,0.1,8.7,0,8.5,0c0,0,0,0,0,0C8.2,0,8,0.1,7.8,0.2
	c0,0-0.1,0.1-0.1,0.1c0,0,0,0,0,0L1.1,7.6C0.7,8,0.8,8.7,1.2,9c0.4,0.4,1,0.3,1.4-0.1l4.7-5.3c0.1,5.1,1.6,9.3,4.5,12.4
	c3.5,3.7,8.8,5.8,15.2,5.8c0.6,0,1-0.4,1-1S27.6,19.9,27,19.9z"/>
</svg>
