<?xml version="1.0" encoding="utf-8"?>
<!-- Generator: Adobe Illustrator 17.1.0, SVG Export Plug-In . SVG Version: 6.00 Build 0)  -->
<!DOCTYPE svg PUBLIC "-//W3C//DTD SVG 1.1//EN" "http://www.w3.org/Graphics/SVG/1.1/DTD/svg11.dtd">
<svg version="1.1" id="Layer_1" xmlns:sketch="http://www.bohemiancoding.com/sketch/ns"
	 xmlns="http://www.w3.org/2000/svg" xmlns:xlink="http://www.w3.org/1999/xlink" x="0px" y="0px" viewBox="54 0 162 162"
	 enable-background="new 54 0 162 162" xml:space="preserve">
<title>Group</title>
<desc>Created with Sketch.</desc>
<path d="M209.5,22.7h-19.4h-22.7V6.5c0-1.9-1.3-3.2-3.2-3.2h-58.3c-1.9,0-3.2,1.3-3.2,3.2v16.2H79.9H60.5c-1.9,0-3.2,1.3-3.2,3.2
	s1.3,3.2,3.2,3.2h16.2v126.4c0,1.9,1.3,3.2,3.2,3.2h110.2c1.9,0,3.2-1.3,3.2-3.2V29.2h16.2c1.9,0,3.2-1.3,3.2-3.2
	S211.5,22.7,209.5,22.7z M109.1,9.7h51.8v13h-51.8V9.7z M186.8,152.3H83.2V29.2h22.7h58.3h22.7V152.3z M105.8,48.6
	c-1.9,0-3.2,1.3-3.2,3.2v74.5c0,1.9,1.3,3.2,3.2,3.2c1.9,0,3.2-1.3,3.2-3.2V51.8C109.1,49.9,107.8,48.6,105.8,48.6z M135,55.1
	c-1.9,0-3.2,1.3-3.2,3.2v74.5c0,1.9,1.3,3.2,3.2,3.2s3.2-1.3,3.2-3.2V58.3C138.2,56.4,136.9,55.1,135,55.1z M160.9,48.6v74.5
	c0,1.9,1.3,3.2,3.2,3.2c1.9,0,3.2-1.3,3.2-3.2V48.6c0-1.9-1.3-3.2-3.2-3.2C162.2,45.4,160.9,46.7,160.9,48.6z"/>
</svg>
