<?xml version="1.0" encoding="utf-8"?>
<!-- Generator: Adobe Illustrator 16.0.4, SVG Export Plug-In . SVG Version: 6.00 Build 0)  -->
<!DOCTYPE svg PUBLIC "-//W3C//DTD SVG 1.1//EN" "http://www.w3.org/Graphics/SVG/1.1/DTD/svg11.dtd">
<svg version="1.1" id="Layer_1" xmlns="http://www.w3.org/2000/svg" xmlns:xlink="http://www.w3.org/1999/xlink" x="0px" y="0px"
	 width="27px" height="27px" viewBox="0 0 27 27" enable-background="new 0 0 27 27" xml:space="preserve">
<g id="Trial-Admins">
	<g id="Export-Queued" transform="translate(-58.000000, -578.000000)">
		<g id="Stroke-1744-_x2B_-Stroke-1745-_x2B_-Stroke-7419" transform="translate(59.000000, 580.000000)">
			<g id="Stroke-1744-_x2B_-Stroke-1745-_x2B_-Stroke-7417" transform="translate(0.000000, 2.000000)">
				<g id="Stroke-1744-_x2B_-Stroke-1745">
					<g id="Stroke-1744">
						<path fill="#79808A" d="M8.96,18.92C3.468,18.92-1,14.452-1,8.96C-1,3.468,3.468-1,8.96-1c2.19,0,4.269,0.698,6.011,2.018
							l-1.209,1.594C12.371,1.557,10.71,1,8.96,1C4.571,1,1,4.571,1,8.96c0,4.389,3.571,7.96,7.96,7.96
							c4.389,0,7.96-3.571,7.96-7.96c0-1.042-0.372-2.503-0.764-3.46l2.025-0.31c0.49,1.198,0.738,2.466,0.738,3.77
							C18.92,14.452,14.452,18.92,8.96,18.92z"/>
					</g>
					<g id="Stroke-1745">
						<path fill="#79808A" d="M20.662,22.162c-0.384,0-0.768-0.146-1.061-0.439l-5.303-5.303c-0.586-0.586-0.01-0.959,0.576-1.545
							s0.959-1.162,1.545-0.576l5.303,5.303c0.586,0.586,0.586,1.535,0,2.121C21.43,22.016,21.046,22.162,20.662,22.162z"/>
					</g>
				</g>
				<g id="Stroke-7417" opacity="0.4" enable-background="new    ">
					<path fill="#79808A" d="M8.241,14.51c-0.019,0-0.039-0.001-0.058-0.002c-0.439-0.024-0.811-0.334-0.915-0.762L6.012,8.58
						l-0.563,1.688C5.312,10.677,4.93,10.951,4.5,10.951H0.88c-0.552,0-1-0.447-1-1s0.448-1,1-1h2.899l1.434-4.299
						c0.141-0.423,0.538-0.696,0.99-0.683c0.445,0.019,0.825,0.33,0.93,0.763l1.303,5.354l1.358-3.685
						c0.137-0.371,0.48-0.627,0.876-0.652c0.404-0.027,0.768,0.187,0.95,0.538l1.382,2.664l4.013,0c0.553,0,1,0.448,1,1
						s-0.448,1-1,1l0,0h-4.62c-0.374,0-0.716-0.208-0.888-0.539l-0.619-1.194l-1.71,4.637C9.033,14.25,8.657,14.51,8.241,14.51z"/>
				</g>
			</g>
			<g id="Stroke-975">
				<path fill="#79808A" d="M12,11.15c-0.071,0-0.142-0.007-0.213-0.023C11.328,11.027,11,10.62,11,10.15
					c0-7.366,5.124-8.29,7.143-8.365V0.15c0-0.401,0.239-0.763,0.608-0.92c0.365-0.157,0.796-0.08,1.084,0.199l4.857,4.667
					C24.889,4.284,25,4.544,25,4.816s-0.111,0.533-0.308,0.721l-4.857,4.667c-0.288,0.278-0.719,0.354-1.084,0.199
					c-0.369-0.157-0.608-0.519-0.608-0.92V7.615c-0.24-0.037-0.532-0.065-0.855-0.065c-1.99,0-3.463,1.015-4.377,3.016
					C12.744,10.927,12.385,11.15,12,11.15z M17.287,5.55c1.21,0,2.084,0.288,2.18,0.321c0.404,0.139,0.676,0.519,0.676,0.946v0.319
					l2.414-2.319l-2.414-2.319v0.319c0,0.29-0.125,0.564-0.344,0.754s-0.51,0.275-0.795,0.236c-0.024-0.003-0.235-0.028-0.561-0.028
					c-1.481,0-3.694,0.44-4.786,2.823C14.977,5.733,16.356,5.55,17.287,5.55z"/>
			</g>
		</g>
	</g>
</g>
</svg>
