<?xml version="1.0" standalone="no"?>
<!DOCTYPE svg PUBLIC "-//W3C//DTD SVG 1.1//EN" "http://www.w3.org/Graphics/SVG/1.1/DTD/svg11.dtd">
<svg id="warning" viewBox="0 0 398 398" version="1.1"	xmlns="http://www.w3.org/2000/svg" xmlns:xlink="http://www.w3.org/1999/xlink" xml:space="preserve">
<path id="Ellipse" d="M 182.3333 294.8333 C 182.3333 283.3273 189.7951 274 199 274 C 208.2049 274 215.6667 283.3273 215.6667 294.8333 C 215.6667 306.3394 208.2049 315.6667 199 315.6667 C 189.7951 315.6667 182.3333 306.3394 182.3333 294.8333 Z" fill="#ca3f00"/>		<path d="M 199 49 L 349 199 L 199 349 L 49 199 L 199 49 ZM 199 -1 L -1 199 L 199 399 L 399 199 L 199 -1 Z" fill="#d13b00"/>		<path d="M 207.3333 249 L 207.3333 244.8333 C 207.3333 246.2943 207.0856 247.6967 206.625 249 L 207.3333 249 ZM 182.3333 249 L 183.0417 249 C 182.581 247.6967 182.3333 246.2943 182.3333 244.8333 L 182.3333 249 ZM 182.3333 99 L 182.3333 244.8333 C 182.3333 246.2943 182.581 247.6967 183.0417 249 C 184.7576 253.855 189.3907 257.3333 194.8333 257.3333 C 200.276 257.3333 204.909 253.855 206.625 249 C 207.0856 247.6967 207.3333 246.2943 207.3333 244.8333 L 207.3333 99 L 182.3333 99 Z" fill="#ca3f00"/>
</svg>
