<?xml version="1.0" encoding="utf-8"?>
<!-- Generator: Adobe Illustrator 17.1.0, SVG Export Plug-In . SVG Version: 6.00 Build 0)  -->
<!DOCTYPE svg PUBLIC "-//W3C//DTD SVG 1.1//EN" "http://www.w3.org/Graphics/SVG/1.1/DTD/svg11.dtd">
<svg version="1.1" id="Layer_1" xmlns:sketch="http://www.bohemiancoding.com/sketch/ns"
	 xmlns="http://www.w3.org/2000/svg" xmlns:xlink="http://www.w3.org/1999/xlink" x="0px" y="0px" viewBox="0 0 21 25"
	 enable-background="new 0 0 21 25" xml:space="preserve">
<path id="admin" transform="translate(1.000000, 1.000000)" sketch:type="MSLayerGroup" fill="none" d="M4.8,14
	c-0.4,0-0.8-0.2-0.9-0.6C3.3,12.1,3,10.5,3,9c0-0.6,0.4-1,1-1h11c0.6,0,1,0.4,1,1c0,1.5-0.3,3.1-0.9,4.4c-0.2,0.5-0.8,0.7-1.3,0.5
	c-0.5-0.2-0.7-0.8-0.5-1.3c0.3-0.8,0.6-1.7,0.7-2.6H5.1c0.1,0.9,0.3,1.8,0.7,2.6c0.2,0.5,0,1.1-0.5,1.3C5.1,14,4.9,14,4.8,14z
	 M14.1,14H4.9l1.2,10h6.8L14.1,14z M7.1,16h4.7l-0.8,6H7.9L7.1,16z M20,15c0-0.6-0.4-1-1-1H0c-0.6,0-1,0.4-1,1s0.4,1,1,1h19
	C19.6,16,20,15.6,20,15z M14,3.5C14,1,12-1,9.5-1S5,1,5,3.5S7,8,9.5,8S14,6,14,3.5z M12,3.5C12,4.9,10.9,6,9.5,6C8.1,6,7,4.9,7,3.5
	S8.1,1,9.5,1C10.9,1,12,2.1,12,3.5z M10.9,8H8.1l-0.5,6h3.8L10.9,8z"/>
</svg>
