<?xml version="1.0" encoding="utf-8"?>
<!-- Generator: Adobe Illustrator 17.1.0, SVG Export Plug-In . SVG Version: 6.00 Build 0)  -->
<!DOCTYPE svg PUBLIC "-//W3C//DTD SVG 1.1//EN" "http://www.w3.org/Graphics/SVG/1.1/DTD/svg11.dtd">
<svg version="1.1" id="Layer_1" xmlns:sketch="http://www.bohemiancoding.com/sketch/ns"
	 xmlns="http://www.w3.org/2000/svg" xmlns:xlink="http://www.w3.org/1999/xlink" x="0px" y="0px" viewBox="0 0 22 22"
	 enable-background="new 0 0 22 22" xml:space="preserve">
<path fill="#79808A" d="M17.1,20.4h-13c-1.7,0-3-1.3-3-3v-13c0-1.7,1.3-3,3-3h13c1.7,0,3,1.3,3,3v13C20.1,19,18.7,20.4,17.1,20.4z
	 M4.1,3.4c-0.6,0-1,0.4-1,1v13c0,0.6,0.4,1,1,1h13c0.6,0,1-0.4,1-1v-13c0-0.6-0.4-1-1-1H4.1z M10.6,14.6c-2,0-3.6-1.6-3.6-3.6
	s1.6-3.6,3.6-3.6s3.6,1.6,3.6,3.6S12.6,14.6,10.6,14.6z M10.6,9.3c-0.9,0-1.6,0.7-1.6,1.6s0.7,1.6,1.6,1.6c0.9,0,1.6-0.7,1.6-1.6
	S11.5,9.3,10.6,9.3z"/>
</svg>
