<?xml version="1.0" encoding="utf-8"?>
<!-- Generator: Adobe Illustrator 16.0.4, SVG Export Plug-In . SVG Version: 6.00 Build 0)  -->
<!DOCTYPE svg PUBLIC "-//W3C//DTD SVG 1.1//EN" "http://www.w3.org/Graphics/SVG/1.1/DTD/svg11.dtd">
<svg version="1.1" id="Layer_1" xmlns="http://www.w3.org/2000/svg" xmlns:xlink="http://www.w3.org/1999/xlink" x="0px" y="0px"
	 width="60.795px" height="64.17px" viewBox="0 0 60.795 64.17" enable-background="new 0 0 60.795 64.17" xml:space="preserve">
<g>
	<g>
		<g>
			<path fill="#949AA2" d="M12.038,64.042l0.001-9.929C4.667,48.39,0.443,39.778,0.443,30.45c0-16.517,13.438-29.954,29.954-29.954
				S60.351,13.934,60.351,30.45c0,16.516-13.438,29.953-29.954,29.953c-3.205,0-6.374-0.512-9.423-1.521L12.038,64.042z
				 M30.397,2.496c-15.414,0-27.954,12.54-27.954,27.954c0,8.781,4.012,16.882,11.007,22.225l0.589,0.452l-0.001,7.45l6.717-3.879
				l0.643,0.216c2.911,0.987,5.938,1.489,8.999,1.489c15.415,0,27.954-12.54,27.954-27.953C58.351,15.036,45.812,2.496,30.397,2.496
				z"/>
		</g>
	</g>
</g>
<g>
	<path fill="#949AA2" d="M34.267,28.908c0.837-0.291,1.479-0.841,1.906-1.633c0.341-0.571,0.514-1.217,0.514-1.921
		c0-1.522-0.575-2.559-1.708-3.081c-0.992-0.458-2.421-0.68-4.367-0.68h-4.73V29.3h5.258C32.481,29.3,33.505,29.172,34.267,28.908z
		 M31.14,28.05h-4.008v-5.206h3.48c1.737,0,3.03,0.19,3.842,0.565c0.661,0.304,0.982,0.94,0.982,1.945
		c0,0.488-0.11,0.901-0.349,1.303c-0.291,0.533-0.693,0.882-1.231,1.068C33.24,27.941,32.326,28.05,31.14,28.05z"/>
	<path fill="#949AA2" d="M38.746,30.069c1.923-1.268,2.897-3.077,2.897-5.381c0-0.798-0.133-1.566-0.395-2.283
		c-0.263-0.718-0.648-1.383-1.148-1.977c-0.497-0.59-1.076-1.084-1.721-1.468c-0.76-0.459-1.624-0.773-2.57-0.933
		c-0.906-0.153-1.985-0.231-3.205-0.231h-8.089c-1.246,0-2.182,0.305-2.784,0.907c-0.602,0.602-0.907,1.55-0.907,2.818v18.772
		c0,1.24,0.296,2.178,0.879,2.788c0.591,0.621,1.538,0.936,2.812,0.936h7.63c1.335,0,2.526-0.068,3.539-0.202
		c1.039-0.138,1.978-0.379,2.794-0.721c1.325-0.582,2.392-1.495,3.17-2.713c0.777-1.214,1.171-2.597,1.171-4.11
		C42.819,33.392,41.449,31.307,38.746,30.069z M32.146,42.767h-7.631c-0.918,0-1.561-0.185-1.908-0.549
		c-0.354-0.371-0.533-1.019-0.533-1.926V21.521c0-0.926,0.182-1.576,0.54-1.934c0.345-0.344,0.946-0.526,1.788-0.541h8.204
		c1.149,0,2.158,0.072,2.997,0.213c0.792,0.135,1.51,0.395,2.135,0.773c0.523,0.312,0.997,0.716,1.408,1.203
		c0.405,0.482,0.719,1.02,0.931,1.599c0.211,0.581,0.318,1.205,0.318,1.855c0,2.253-1.107,3.861-3.385,4.917l-1.457,0.675
		l1.531,0.488c3.019,0.961,4.486,2.761,4.486,5.501c0,1.27-0.328,2.426-0.975,3.437c-0.644,1.008-1.522,1.761-2.609,2.239
		c-0.716,0.298-1.545,0.51-2.465,0.629C34.567,42.702,33.433,42.767,32.146,42.767z"/>
	<path fill="#949AA2" d="M36.076,32.63c-0.996-0.641-2.405-0.952-4.306-0.952h-5.89v8.54h6.06c4.754,0,5.752-2.35,5.752-4.32
		C37.692,34.415,37.148,33.315,36.076,32.63z M31.94,38.968h-4.809v-6.039h4.639c1.631,0,2.854,0.254,3.632,0.754
		c0.7,0.446,1.04,1.171,1.04,2.215C36.442,37.216,35.976,38.968,31.94,38.968z"/>
</g>
</svg>
