<?xml version="1.0" encoding="utf-8"?>
<!-- Generator: Adobe Illustrator 17.1.0, SVG Export Plug-In . SVG Version: 6.00 Build 0)  -->
<!DOCTYPE svg PUBLIC "-//W3C//DTD SVG 1.1//EN" "http://www.w3.org/Graphics/SVG/1.1/DTD/svg11.dtd">
<svg version="1.1" id="Layer_1" xmlns:sketch="http://www.bohemiancoding.com/sketch/ns"
	 xmlns="http://www.w3.org/2000/svg" xmlns:xlink="http://www.w3.org/1999/xlink" x="0px" y="0px" viewBox="-37.5 -6 324 324"
	 enable-background="new -37.5 -6 324 324" xml:space="preserve">
<title>Clipboard</title>
<desc>Created with Sketch.</desc>
<g>
	<path fill="#E1E4E7" d="M243,37.9h-62.3v-7.6c0-1.9-1.6-3.5-3.5-3.5h-23C152.4,12,139.8,0.5,124.5,0.5S96.6,12,94.9,26.8h-23
		c-1.9,0-3.5,1.6-3.5,3.5v7.6H6c-3,0-5.5,2.5-5.5,5.5V306c0,3,2.5,5.5,5.5,5.5h237c3,0,5.5-2.5,5.5-5.5V43.4
		C248.5,40.4,246,37.9,243,37.9z M35.8,176.3h22.8c1.4,0,2.7-0.7,3.6-1.8l15.9-21.2l22.8,34.1c0.9,1.3,2.4,2.1,4,2
		c1.6-0.1,3-1,3.7-2.5l27.7-55.3l23.2,80.8c0.5,1.8,2.1,3.1,3.9,3.2c0.1,0,0.3,0,0.4,0c1.7,0,3.3-1,4-2.5l18.5-36.9h26.6v97.8H35.8
		V176.3z M213.2,167.3h-29.4c-1.7,0-3.3,1-4,2.5l-14.6,29.1L142,118.1c-0.5-1.8-2.1-3.1-3.9-3.2c-1.8-0.2-3.6,0.8-4.4,2.5L104.2,176
		l-22-33c-0.8-1.2-2.2-2-3.6-2c-1.5-0.1-2.8,0.6-3.7,1.8l-18.4,24.5H35.8V73.2h32.5v9.6c0,1.9,1.6,3.5,3.5,3.5h105.3
		c1.9,0,3.5-1.6,3.5-3.5v-9.6h32.5V167.3z M75.3,33.8h22.8c1.9,0,3.5-1.6,3.5-3.5c0-12.6,10.2-22.8,22.8-22.8
		c12.6,0,22.8,10.2,22.8,22.8c0,1.9,1.6,3.5,3.5,3.5h22.8v45.5H75.3V33.8z M237.5,300.5h-226V48.9h56.8v17.3h-36
		c-1.9,0-3.5,1.6-3.5,3.5v208c0,1.9,1.6,3.5,3.5,3.5h184.3c1.9,0,3.5-1.6,3.5-3.5v-208c0-1.9-1.6-3.5-3.5-3.5h-36V48.9h56.8V300.5z"
		/>
	<path fill="#E1E4E7" d="M124,41.5c6.9,0,12.5-5.6,12.5-12.5s-5.6-12.5-12.5-12.5s-12.5,5.6-12.5,12.5S117.1,41.5,124,41.5z
		 M124,23.5c3,0,5.5,2.5,5.5,5.5s-2.5,5.5-5.5,5.5c-3,0-5.5-2.5-5.5-5.5S121,23.5,124,23.5z"/>
	<path fill="#E1E4E7" d="M52,253.5c-1.9,0-3.5,1.6-3.5,3.5v4.4c0,1.9,1.6,3.5,3.5,3.5s3.5-1.6,3.5-3.5V257
		C55.5,255.1,53.9,253.5,52,253.5z"/>
	<path fill="#E1E4E7" d="M131,253.5c-1.9,0-3.5,1.6-3.5,3.5v4.4c0,1.9,1.6,3.5,3.5,3.5s3.5-1.6,3.5-3.5V257
		C134.5,255.1,132.9,253.5,131,253.5z"/>
	<path fill="#E1E4E7" d="M64,244.7c-1.9,0-3.5,1.6-3.5,3.5v13.3c0,1.9,1.6,3.5,3.5,3.5s3.5-1.6,3.5-3.5v-13.3
		C67.5,246.2,65.9,244.7,64,244.7z"/>
	<path fill="#E1E4E7" d="M143,244.7c-1.9,0-3.5,1.6-3.5,3.5v13.3c0,1.9,1.6,3.5,3.5,3.5s3.5-1.6,3.5-3.5v-13.3
		C146.5,246.2,144.9,244.7,143,244.7z"/>
	<path fill="#E1E4E7" d="M78,253.5c-1.9,0-3.5,1.6-3.5,3.5v4.4c0,1.9,1.6,3.5,3.5,3.5s3.5-1.6,3.5-3.5V257
		C81.5,255.1,79.9,253.5,78,253.5z"/>
	<path fill="#E1E4E7" d="M157,253.5c-1.9,0-3.5,1.6-3.5,3.5v4.4c0,1.9,1.6,3.5,3.5,3.5s3.5-1.6,3.5-3.5V257
		C160.5,255.1,158.9,253.5,157,253.5z"/>
	<path fill="#E1E4E7" d="M91,244.7c-1.9,0-3.5,1.6-3.5,3.5v13.3c0,1.9,1.6,3.5,3.5,3.5s3.5-1.6,3.5-3.5v-13.3
		C94.5,246.2,92.9,244.7,91,244.7z"/>
	<path fill="#E1E4E7" d="M170,244.7c-1.9,0-3.5,1.6-3.5,3.5v13.3c0,1.9,1.6,3.5,3.5,3.5s3.5-1.6,3.5-3.5v-13.3
		C173.5,246.2,171.9,244.7,170,244.7z"/>
	<path fill="#E1E4E7" d="M104,253.5c-1.9,0-3.5,1.6-3.5,3.5v4.4c0,1.9,1.6,3.5,3.5,3.5s3.5-1.6,3.5-3.5V257
		C107.5,255.1,105.9,253.5,104,253.5z"/>
	<path fill="#E1E4E7" d="M183,253.5c-1.9,0-3.5,1.6-3.5,3.5v4.4c0,1.9,1.6,3.5,3.5,3.5s3.5-1.6,3.5-3.5V257
		C186.5,255.1,184.9,253.5,183,253.5z"/>
	<path fill="#E1E4E7" d="M118,244.7c-1.9,0-3.5,1.6-3.5,3.5v13.3c0,1.9,1.6,3.5,3.5,3.5s3.5-1.6,3.5-3.5v-13.3
		C121.5,246.2,119.9,244.7,118,244.7z"/>
	<path fill="#E1E4E7" d="M197,244.7c-1.9,0-3.5,1.6-3.5,3.5v13.3c0,1.9,1.6,3.5,3.5,3.5s3.5-1.6,3.5-3.5v-13.3
		C200.5,246.2,198.9,244.7,197,244.7z"/>
</g>
</svg>
