<?xml version="1.0" encoding="utf-8"?>
<!-- Generator: Adobe Illustrator 17.1.0, SVG Export Plug-In . SVG Version: 6.00 Build 0)  -->
<!DOCTYPE svg PUBLIC "-//W3C//DTD SVG 1.1//EN" "http://www.w3.org/Graphics/SVG/1.1/DTD/svg11.dtd">
<svg version="1.1" id="Layer_1" xmlns:sketch="http://www.bohemiancoding.com/sketch/ns"
	 xmlns="http://www.w3.org/2000/svg" xmlns:xlink="http://www.w3.org/1999/xlink" x="0px" y="0px" viewBox="54 0 162 162"
	 enable-background="new 54 0 162 162" xml:space="preserve">
<title>Group</title>
<desc>Created with Sketch.</desc>
<path d="M186.2,48.6L168,30.5c-0.6-0.6-1.3-0.6-2.6-0.6c-1.3,0-1.9,0.6-2.6,0.6l-57,57c0,0-0.6,0.6-0.6,1.3l-13.6,31.8
	c-0.6,1.3,0,2.6,0.6,3.9c0.6,0.6,1.3,0.6,2.6,0.6c0.6,0,0.6,0,1.3,0l31.8-13.6c0.6,0,0.6-0.6,1.3-0.6l57-57
	C186.8,51.8,186.8,49.9,186.2,48.6z M100.7,115.3l8.4-20.1l11.7,11.7L100.7,115.3z M126.6,103.7l-14.3-14.3l40.8-40.8l13.6,13.6
	L126.6,103.7z M171.9,58.3l-14.3-14.3l7.1-7.1l13.6,13.6L171.9,58.3z M135,3.2c-42.8,0-77.8,35-77.8,77.8s35,77.8,77.8,77.8
	s77.8-35,77.8-77.8S177.8,3.2,135,3.2z M135,152.3c-39.5,0-71.3-31.8-71.3-71.3S95.5,9.7,135,9.7s71.3,31.8,71.3,71.3
	S174.5,152.3,135,152.3z"/>
</svg>
