<?xml version="1.0" encoding="utf-8"?>
<!-- Generator: Adobe Illustrator 17.1.0, SVG Export Plug-In . SVG Version: 6.00 Build 0)  -->
<!DOCTYPE svg PUBLIC "-//W3C//DTD SVG 1.1//EN" "http://www.w3.org/Graphics/SVG/1.1/DTD/svg11.dtd">
<svg version="1.1" id="Layer_1" xmlns:sketch="http://www.bohemiancoding.com/sketch/ns"
	 xmlns="http://www.w3.org/2000/svg" xmlns:xlink="http://www.w3.org/1999/xlink" x="0px" y="0px" viewBox="0 0 282 332"
	 enable-background="new 0 0 282 332" xml:space="preserve">
<path fill="#E1E4E7" d="M273.9,236.8l-9.4-9.1c-2.3-2.2-5.3-3.4-8.5-3.4c-3.2,0-6.2,1.2-8.5,3.4l-67.8,66c0,0,0,0,0,0c0,0,0,0,0,0
	l-1,1c-0.4,0.4-0.8,1-0.9,1.6L171,324c-0.3,1.1,0.1,2.3,0.9,3.1c0.6,0.6,1.5,1,2.3,1c0.2,0,0.5,0,0.7-0.1l28.5-6.5
	c0.6-0.1,1.1-0.4,1.6-0.8l58.8-57.2c0.3-0.2,0.6-0.4,0.9-0.6c0.2-0.2,0.4-0.5,0.5-0.7l4.8-4.7c0.3-0.2,0.6-0.4,0.9-0.6
	c0.2-0.2,0.4-0.5,0.5-0.7l2.4-2.4c2.3-2.2,3.6-5.2,3.6-8.4C277.4,242,276.2,239,273.9,236.8z M178.6,320.4l4.5-18.8l14.8,14.4
	L178.6,320.4z M203.8,312.6l-17.1-16.7l53.7-52.2l17.1,16.7L203.8,312.6z M262.2,255.8l-17.1-16.7l1.5-1.5l17.1,16.7L262.2,255.8z
	 M269.3,248.9l-0.8,0.8l-17.1-16.7l0.7-0.7c1.1-1,2.5-1.6,4-1.6c1.5,0,2.9,0.6,4,1.6l9.4,9.1c1,1,1.6,2.3,1.6,3.7
	C270.9,246.6,270.3,247.9,269.3,248.9z M83.1,127.4l61.5,60.8c2.4,2.3,2.4,6.1,0,8.5c-1.2,1.2-2.7,1.8-4.3,1.8
	c-1.5,0-3.1-0.6-4.2-1.7l-61.5-60.8c-2.4-2.3-2.4-6.1,0-8.5C77,125.1,80.8,125,83.1,127.4z M140.4,314.9
	c-68.3,0-123.8-54.9-123.8-122.4C16.6,125,72.1,70,140.4,70S264.2,125,264.2,192.5c0,2.8-0.1,5.5-0.3,8.3c4,2,7.8,4.4,11.4,7
	c0.6-5,0.9-10.1,0.9-15.2c0-35.7-14.1-68.2-37.1-92.3L255,84.5l4.2,4.1c1.2,1.2,2.7,1.7,4.2,1.7c1.5,0,3.1-0.6,4.3-1.8
	c2.3-2.4,2.3-6.2,0-8.5l-13.7-13.5c-2.4-2.3-6.2-2.3-8.5,0c-2.3,2.4-2.3,6.2,0,8.5l4.1,4l-15.9,15.7c-20.3-19.1-46.6-32-75.8-35.7
	V16h23.5c3.3,0,6-2.7,6-6s-2.7-6-6-6h-82c-3.3,0-6,2.7-6,6s2.7,6,6,6h23.5v43.2C56.2,67.7,4.6,124.2,4.6,192.5
	c0,74.1,60.9,134.4,135.8,134.4c3.2,0,6.5-0.1,9.6-0.3c-2.5-3.7-4.7-7.6-6.6-11.7C142.4,314.9,141.4,314.9,140.4,314.9z M130.5,16
	h19.7v42.4c-3.3-0.2-6.5-0.4-9.8-0.4c-3.3,0-6.6,0.1-9.8,0.4V16z"/>
</svg>
