<?xml version="1.0" encoding="utf-8"?>
<!-- Generator: Adobe Illustrator 17.1.0, SVG Export Plug-In . SVG Version: 6.00 Build 0)  -->
<!DOCTYPE svg PUBLIC "-//W3C//DTD SVG 1.1//EN" "http://www.w3.org/Graphics/SVG/1.1/DTD/svg11.dtd">
<svg version="1.1" id="Layer_1" xmlns:sketch="http://www.bohemiancoding.com/sketch/ns"
	 xmlns="http://www.w3.org/2000/svg" xmlns:xlink="http://www.w3.org/1999/xlink" x="0px" y="0px" viewBox="0 0 25 25"
	 enable-background="new 0 0 25 25" xml:space="preserve">
<path fill="#685BC7" d="M23.2,14.8C22.1,13.6,20.6,13,19,13s-3.1,0.6-4.2,1.8c-2.3,2.3-2.3,6.1,0,8.5c1.1,1.1,2.6,1.8,4.2,1.8
	s3.1-0.6,4.2-1.8c1.1-1.1,1.8-2.6,1.8-4.2S24.4,15.9,23.2,14.8z M16.2,16.2c0.8-0.8,1.8-1.2,2.8-1.2c0.7,0,1.4,0.2,2,0.6L15.6,21
	C14.7,19.5,14.9,17.5,16.2,16.2z M21.8,21.8c-1.3,1.3-3.3,1.5-4.8,0.6l5.4-5.4c0.4,0.6,0.6,1.3,0.6,2C23,20.1,22.6,21.1,21.8,21.8z
	 M13.2,6.5c0,0,0-0.1,0-0.1c-0.4-0.1-0.7-0.5-0.7-1c0-0.3,0.1-0.5,0.2-0.8c0.2-0.5,0.5-1.3,0.4-1.9c-0.1-0.2-0.9-0.7-2.3-0.7
	c0,0,0,0,0,0c-1.4,0-2.2,0.4-2.3,0.7C8.4,3.3,7.9,3.6,7.3,3.5c-0.1,0-0.2,0-0.2,0c0,0.2,0,0.6,0.2,1.4c0.1,0.3,0.1,0.4,0.1,0.6
	c0,0.3-0.1,0.6-0.4,0.8c0,0.1,0,0.3,0,0.5c0.2,0.2,0.4,0.5,0.4,0.8c0,1.6,0.8,2,0.9,2.1C8.8,9.8,9,10.1,9,10.5V13
	c0,0.4-0.2,0.8-0.6,0.9c-0.8,0.3-1.7,0.6-2.5,0.9c-1.2,0.4-3.1,1-3.4,1.5C2.3,17,2.1,18.1,2.1,19h9.4v2H1c-0.3,0-0.5-0.1-0.7-0.3
	C0.1,20.5,0,20.2,0,20c0-0.1,0.1-2.7,0.6-4.3c0.4-1.3,2.3-2,4.6-2.7c0.6-0.2,1.2-0.4,1.8-0.6V11C6.3,10.5,5.6,9.5,5.5,8
	C5.3,7.7,5.1,7.2,5.1,6.5c0-0.3,0-0.6,0.1-1c0-0.1,0.1-0.2,0.1-0.3C5.2,4.3,4.8,2.9,5.7,2C5.9,1.8,6.3,1.5,7,1.5
	c0.8-1,2.4-1.4,3.8-1.4c0,0,0,0,0,0c1.8,0,3.8,0.6,4.2,2.2c0.3,1,0,2.1-0.3,2.7c0.3,0.4,0.5,0.9,0.5,1.5c0,0.5-0.1,0.9-0.3,1.3
	c-0.1,0.2-0.3,0.3-0.4,0.5c-0.2,1.4-0.8,2.4-1.5,2.9v1.2c0.3,0.1,0.6,0.2,0.9,0.3c0.3,0.1,0.6,0.2,0.9,0.3l-0.6,1.9
	c-0.3-0.1-0.6-0.2-1-0.3c-0.5-0.2-1-0.3-1.6-0.5c-0.4-0.1-0.7-0.5-0.7-1v-2.5c0-0.4,0.2-0.8,0.6-0.9c0.1,0,0.9-0.5,0.9-2.1
	C12.5,7,12.8,6.6,13.2,6.5z"/>
</svg>
