<?xml version="1.0" encoding="utf-8"?>
<!-- Generator: Adobe Illustrator 17.1.0, SVG Export Plug-In . SVG Version: 6.00 Build 0)  -->
<!DOCTYPE svg PUBLIC "-//W3C//DTD SVG 1.1//EN" "http://www.w3.org/Graphics/SVG/1.1/DTD/svg11.dtd">
<svg version="1.1" id="Layer_1" xmlns:sketch="http://www.bohemiancoding.com/sketch/ns"
	 xmlns="http://www.w3.org/2000/svg" xmlns:xlink="http://www.w3.org/1999/xlink" x="0px" y="0px" viewBox="0 0 7 16"
	 enable-background="new 0 0 7 16" xml:space="preserve">
<path d="M0.8,8.5L0.6,7.9l1.3-1C2.6,6.5,3.1,6.2,3.3,6c0.4-0.2,0.7-0.4,1-0.5c0.2-0.1,0.3-0.1,0.5-0.1c0.2,0,0.3,0.1,0.4,0.2
	S5.4,6,5.4,6.2c0,0.2,0,0.5-0.1,0.8C5.2,7.4,5,8.3,4.6,9.7C4.2,11.1,4,12,3.9,12.5c-0.1,0.4-0.1,0.7-0.1,0.9c0,0.1,0,0.2,0.1,0.2
	s0.1,0.1,0.2,0.1c0.1,0,0.2,0,0.4-0.1c0.4-0.2,0.8-0.5,1.3-0.8l0.3,0.5c-0.5,0.4-1.1,0.8-1.7,1.2c-0.7,0.4-1.1,0.7-1.4,0.8
	c-0.2,0.1-0.4,0.1-0.6,0.1c-0.2,0-0.4-0.1-0.5-0.2c-0.1-0.2-0.2-0.4-0.2-0.8c0-0.3,0-0.6,0.1-0.8c0.1-0.4,0.2-1.1,0.5-2.1
	c0.5-2.1,0.8-3.3,0.8-3.7c0-0.1,0-0.1-0.1-0.2c0,0-0.1-0.1-0.2-0.1C2.3,7.5,1.8,7.8,0.8,8.5z M3.8,2.6c0-0.4,0.1-0.8,0.4-1
	s0.6-0.4,1-0.4c0.3,0,0.6,0.1,0.8,0.3s0.3,0.5,0.3,0.8c0,0.5-0.1,0.8-0.4,1.1s-0.6,0.4-1,0.4c-0.3,0-0.6-0.1-0.8-0.3
	S3.8,2.9,3.8,2.6z"/>
</svg>
