<?xml version="1.0" encoding="utf-8"?>
<!-- Generator: Adobe Illustrator 17.1.0, SVG Export Plug-In . SVG Version: 6.00 Build 0)  -->
<!DOCTYPE svg PUBLIC "-//W3C//DTD SVG 1.1//EN" "http://www.w3.org/Graphics/SVG/1.1/DTD/svg11.dtd">
<svg version="1.1" id="Layer_1" xmlns:sketch="http://www.bohemiancoding.com/sketch/ns"
	 xmlns="http://www.w3.org/2000/svg" xmlns:xlink="http://www.w3.org/1999/xlink" x="0px" y="0px" viewBox="0 0 261 308"
	 enable-background="new 0 0 261 308" xml:space="preserve">
<title>Group 2</title>
<desc>Created with Sketch.</desc>
<g>
	<path fill="#E1E4E7" d="M248.2,247.5h-33.9v-32.9c0-3.9-3.1-7-7-7s-7,3.1-7,7v32.9h-32c-3.9,0-7,3.1-7,7s3.1,7,7,7h32v33
		c0,3.9,3.1,7,7,7s7-3.1,7-7v-33h33.9c3.9,0,7-3.1,7-7S252.1,247.5,248.2,247.5z"/>
	<path fill="#E1E4E7" d="M70,119.2c-2.1,2.2-2.1,5.6,0,7.8l56.4,55.8c1.1,1.1,2.5,1.6,3.9,1.6c1.4,0,2.8-0.5,3.9-1.6
		c2.1-2.2,2.1-5.6,0-7.8l-56.4-55.8C75.6,117,72.1,117,70,119.2z"/>
	<path fill="#E1E4E7" d="M153.8,288.6c-7.6,1.6-15.4,2.4-23.5,2.4c-62.6,0-113.5-50.3-113.5-112.2c0-61.9,50.9-112.2,113.5-112.2
		s113.5,50.3,113.5,112.2c0,8-0.9,15.8-2.5,23.3c3.4,2.5,6.5,5.4,9.3,8.5c2.7-10.1,4.2-20.8,4.2-31.8c0-32.7-12.9-62.5-34-84.6
		l14.6-14.4l3.8,3.8c1.1,1.1,2.5,1.6,3.9,1.6c1.4,0,2.8-0.5,3.9-1.6c2.1-2.2,2.1-5.6,0-7.8l-12.5-12.4c-2.2-2.1-5.6-2.1-7.8,0
		c-2.1,2.2-2.1,5.6,0,7.8l3.7,3.7l-14.6,14.4C197.1,71.8,173,60,146.3,56.6V17h21.6c3,0,5.5-2.5,5.5-5.5S170.9,6,167.9,6H92.7
		c-3,0-5.5,2.5-5.5,5.5s2.5,5.5,5.5,5.5h21.6v39.6C53.2,64.4,5.8,116.2,5.8,178.8C5.8,246.7,61.6,302,130.3,302
		c11.1,0,21.9-1.5,32.1-4.2C159.2,295,156.3,291.9,153.8,288.6z M121.3,17h18.1v38.9c-3-0.2-6-0.3-9-0.3s-6,0.1-9,0.3V17z"/>
</g>
</svg>
