<?xml version="1.0" encoding="utf-8"?>
<!-- Generator: Adobe Illustrator 17.1.0, SVG Export Plug-In . SVG Version: 6.00 Build 0)  -->
<!DOCTYPE svg PUBLIC "-//W3C//DTD SVG 1.1//EN" "http://www.w3.org/Graphics/SVG/1.1/DTD/svg11.dtd">
<svg version="1.1" id="Layer_1" xmlns:sketch="http://www.bohemiancoding.com/sketch/ns"
	 xmlns="http://www.w3.org/2000/svg" xmlns:xlink="http://www.w3.org/1999/xlink" x="0px" y="0px" viewBox="0 0 47 26"
	 enable-background="new 0 0 47 26" xml:space="preserve">
<path fill="#D8D8D8" d="M39.2,19.2c-0.5,0-1-0.2-1.4-0.6C34.2,15,29.4,13,24.3,13c0,0,0,0,0,0c-5.1,0-9.9,2-13.5,5.6
	c-0.8,0.8-2,0.8-2.8,0c-0.8-0.8-0.8-2,0-2.8C12.3,11.4,18.1,9,24.3,9c0,0,0,0,0,0c6.2,0,12,2.4,16.4,6.8c0.8,0.8,0.8,2,0,2.8
	C40.2,19,39.7,19.2,39.2,19.2z M35,24.6c0.8-0.8,0.8-2,0-2.8c-5.7-5.7-15-5.7-20.8,0c-0.8,0.8-0.8,2,0,2.8c0.8,0.8,2,0.8,2.8,0
	c4.2-4.2,11-4.2,15.1,0c0.4,0.4,0.9,0.6,1.4,0.6S34.6,25,35,24.6z M4.4,12.6c10.8-10.8,28.3-10.8,39,0c0.8,0.8,2,0.8,2.8,0
	c0.8-0.8,0.8-2,0-2.8C33.9-2.5,13.9-2.5,1.5,9.8c-0.8,0.8-0.8,2,0,2.8C1.9,13,2.4,13.2,3,13.2C3.5,13.2,4,13,4.4,12.6z"/>
</svg>
