<?xml version="1.0" encoding="utf-8"?>
<!-- Generator: Adobe Illustrator 17.1.0, SVG Export Plug-In . SVG Version: 6.00 Build 0)  -->
<!DOCTYPE svg PUBLIC "-//W3C//DTD SVG 1.1//EN" "http://www.w3.org/Graphics/SVG/1.1/DTD/svg11.dtd">
<svg version="1.1" id="Layer_1" xmlns:sketch="http://www.bohemiancoding.com/sketch/ns"
	 xmlns="http://www.w3.org/2000/svg" xmlns:xlink="http://www.w3.org/1999/xlink" x="0px" y="0px" viewBox="63 0 144 162"
	 enable-background="new 63 0 144 162" xml:space="preserve">
<path d="M186.2,49.4l6-6l0.4,0.4c0.9,0.9,1.7,1.3,3,1.3c1.3,0,2.1-0.4,3-1.3c1.7-1.7,1.7-4.3,0-6l-6.8-6.8c-1.7-1.7-4.3-1.7-6,0
	s-1.7,4.3,0,6l0.4,0.4l-6,6c-9.4-8.3-21.2-14-34.1-16.1V8.5h9c2.6,0,4.3-1.7,4.3-4.3c0-2.6-1.7-4.3-4.3-4.3h-13.2h-13.6h-13.6
	c-2.6,0-4.3,1.7-4.3,4.3c0,2.6,1.7,4.3,4.3,4.3h9.4v18.8c-32.3,5.3-57.1,33.1-57.1,66.9c0,37.5,30.7,67.8,68.2,67.8
	s68.2-30.3,68.2-67.8C203.2,77,196.8,61.4,186.2,49.4z M132.4,8.5h5.1v18c-0.9,0-1.7-0.1-2.6-0.1s-1.7,0-2.6,0.1V8.5z M135,153.5
	c-32.8,0-59.7-26.4-59.7-58.8c0-32.8,26.9-59.3,59.7-59.3s59.7,26.4,59.7,58.8C194.7,127,167.8,153.5,135,153.5z"/>
<path d="M138,97.2c1.7-1.7,1.7-4.3,0-6l-30.3-29.8c-1.7-1.7-4.3-1.7-6,0c-1.7,1.7-1.7,4.3,0,6L132,97.2c0.9,0.9,1.7,1.3,3,1.3
	C136.3,98.5,137.1,98.1,138,97.2z"/>
</svg>
