<?xml version="1.0" encoding="utf-8"?>
<!-- Generator: Adobe Illustrator 17.1.0, SVG Export Plug-In . SVG Version: 6.00 Build 0)  -->
<!DOCTYPE svg PUBLIC "-//W3C//DTD SVG 1.1//EN" "http://www.w3.org/Graphics/SVG/1.1/DTD/svg11.dtd">
<svg version="1.1" id="Layer_1" xmlns:sketch="http://www.bohemiancoding.com/sketch/ns"
	 xmlns="http://www.w3.org/2000/svg" xmlns:xlink="http://www.w3.org/1999/xlink" x="0px" y="0px" viewBox="0 0 25 20"
	 enable-background="new 0 0 25 20" xml:space="preserve">
<path id="users" transform="translate(1.000000, 1.000000)" sketch:type="MSLayerGroup" fill="none" d="M15,19H0c-0.6,0-1-0.4-1-1
	v-4.5c0-0.4,0-1.4,5.5-3.7V9c-0.4-0.4-0.9-1.1-1-2.4C3.1,6.2,2.9,5.5,2.9,4.9C2.9,4.4,3,4,3.2,3.7c0,0,0.1-0.1,0.1-0.1
	C3,2.8,2.7,1.9,3.2,1.1c0.2-0.2,0.5-0.6,1.2-0.7C5.1-0.4,6.4-1,8-1c2.1,0,3.6,0.9,4,2.3c0.2,0.9,0,1.8-0.2,2.3c0,0,0.1,0.1,0.1,0.1
	C12,4,12.1,4.4,12.1,4.9c0,0.7-0.2,1.3-0.7,1.7c-0.1,1.3-0.6,2-1,2.4v0.8c5.5,2.3,5.5,3.2,5.5,3.7V18C16,18.6,15.6,19,15,19z M1,17
	h13v-3.2c-0.6-0.4-2.5-1.5-4.9-2.4c-0.4-0.2-0.6-0.5-0.6-0.9v-2c0-0.4,0.2-0.7,0.6-0.9c0.1,0,0.4-0.4,0.4-1.6c0-0.3,0.1-0.5,0.3-0.7
	c0.1-0.1,0.2-0.2,0.3-0.2c0,0,0-0.1,0-0.2C9.8,4.8,9.5,4.4,9.5,4c0-0.3,0.1-0.5,0.2-0.7c0.2-0.4,0.4-1,0.3-1.5C9.9,1.4,9.1,1,8,1
	S6.1,1.4,6,1.7C5.9,2.2,5.5,2.5,5,2.5c0,0,0,0,0,0c0.1,0.3,0.2,0.6,0.3,0.7C5.4,3.5,5.5,3.7,5.5,4c0,0.3-0.1,0.5-0.3,0.7
	C5.1,4.8,5,4.9,4.9,4.9c0,0,0,0.1,0,0.1C5.2,5.2,5.5,5.6,5.5,6c0,1.2,0.4,1.5,0.4,1.6c0.4,0.2,0.6,0.5,0.6,0.9v2
	c0,0.4-0.2,0.8-0.6,0.9c-2.4,1-4.3,2-4.9,2.4V17z M24,18v-4.5c0-1.1-1.1-1.5-3.4-2.3c-0.4-0.1-0.7-0.3-1.1-0.4v-0.3
	c0.4-0.4,0.9-1,1-2c0.3-0.4,0.5-1,0.5-1.7c0-0.5-0.1-0.8-0.3-1.1c0.2-0.5,0.5-1.3,0.2-2.1c-0.4-1.3-2.1-1.8-3.4-1.8
	c-1.1,0-2.4,0.3-3,1.1c-0.5,0.1-0.8,0.3-1,0.5c-0.5,0.6-0.4,1.5-0.1,2.2c0,0.1-0.1,0.1-0.1,0.2C13,6.2,13,6.6,13,6.9
	c0,0.6,0.2,1.3,0.5,1.7c0.1,1,0.5,1.6,1,2V11c0,0.6,0.4,1,1,1s1-0.4,1-1v-1c0-0.5-0.2-0.9-0.7-0.9C15.7,9,15.5,8.7,15.5,8
	c0-0.4-0.2-0.7-0.5-0.9c0-0.1,0-0.2,0-0.3c0.1,0,0.2-0.1,0.2-0.2c0.2-0.2,0.3-0.4,0.3-0.7c0-0.2-0.1-0.4-0.2-0.7
	c0-0.1-0.1-0.2-0.1-0.4c0.3-0.1,0.6-0.3,0.7-0.7c0-0.1,0.6-0.4,1.6-0.4s1.5,0.3,1.6,0.4c0.1,0.3-0.1,0.7-0.3,0.9
	c-0.1,0.2-0.3,0.4-0.3,0.8c0,0.4,0.2,0.7,0.5,0.9c0,0.1,0,0.2,0,0.3c-0.3,0.2-0.5,0.5-0.5,0.9c0,0.7-0.2,1-0.3,1
	c-0.5,0.1-0.7,0.5-0.7,1v1.5c0,0.4,0.2,0.8,0.6,0.9c0.6,0.2,1.2,0.5,1.8,0.7c0.7,0.3,1.6,0.6,2.1,0.8V17h-4.5c-0.6,0-1,0.4-1,1
	s0.4,1,1,1H23C23.6,19,24,18.6,24,18z"/>
</svg>
