<?xml version="1.0" encoding="utf-8"?>
<!-- Generator: Adobe Illustrator 17.1.0, SVG Export Plug-In . SVG Version: 6.00 Build 0)  -->
<!DOCTYPE svg PUBLIC "-//W3C//DTD SVG 1.1//EN" "http://www.w3.org/Graphics/SVG/1.1/DTD/svg11.dtd">
<svg version="1.1" id="Layer_1" xmlns:sketch="http://www.bohemiancoding.com/sketch/ns"
	 xmlns="http://www.w3.org/2000/svg" xmlns:xlink="http://www.w3.org/1999/xlink" x="0px" y="0px" viewBox="0 0 26 26"
	 enable-background="new 0 0 26 26" xml:space="preserve">
<path id="user" transform="translate(1.000000, 1.000000)" sketch:type="MSLayerGroup" fill="none" d="M3.5,20.9
	c-0.1,0-0.3-0.1-0.4-0.1c-2.3-2.4-3.6-5.5-3.6-8.8C-0.5,5.1,5.1-0.5,12-0.5S24.5,5.1,24.5,12c0,3.3-1.3,6.4-3.6,8.8
	c-0.2,0.2-0.4,0.2-0.6,0.1c-1-0.7-2.8-1.3-4.7-2c-0.5-0.2-1.1-0.4-1.7-0.6c-0.2-0.1-0.3-0.3-0.3-0.5v-2.6c0-0.2,0.1-0.4,0.3-0.5
	c0,0,1.2-0.5,1.2-2.7c0-0.3,0.2-0.5,0.5-0.5c0,0,0.1-0.2,0.1-0.5s-0.1-0.5-0.2-0.5c-0.3,0-0.5-0.2-0.5-0.5c0-0.1,0-0.3,0.1-0.6
	c0.2-0.6,0.6-2,0.4-2.9c-0.2-0.7-1.4-1.2-2.9-1.2S10,5.7,9.9,6.4C9.8,6.6,9.6,6.8,9.3,6.8C8.8,6.6,8.6,6.8,8.5,6.9
	c-0.4,0.5,0,1.9,0.2,2.5c0.1,0.3,0.1,0.4,0.1,0.6c0,0.3-0.2,0.5-0.5,0.5c0,0-0.1,0.2-0.1,0.5s0.1,0.5,0.2,0.5c0.3,0,0.5,0.2,0.5,0.5
	c0,2.2,1.2,2.6,1.2,2.7c0.2,0.1,0.3,0.3,0.3,0.5v2.6c0,0.2-0.1,0.4-0.3,0.5c-0.5,0.2-1,0.4-1.6,0.6c-1.8,0.7-3.7,1.3-4.8,2.1
	C3.7,20.9,3.6,20.9,3.5,20.9z M12,0.5C5.7,0.5,0.5,5.7,0.5,12c0,2.9,1.1,5.7,3,7.8c1.2-0.7,2.9-1.3,4.6-1.9c0.4-0.2,0.8-0.3,1.2-0.5
	v-2c-0.5-0.3-1.4-1.1-1.6-3.1c-0.4-0.2-0.7-0.7-0.7-1.4c0-0.6,0.2-1.1,0.6-1.4c-0.2-0.9-0.7-2.5,0-3.3C7.9,6,8.3,5.7,9.1,5.7
	c0.6-1.1,2.3-1.5,3.7-1.5c1.6,0,3.5,0.5,3.9,1.9c0.3,1.2-0.2,2.7-0.4,3.5c0.3,0.3,0.5,0.7,0.5,1.3c0,0.7-0.3,1.2-0.7,1.4
	c-0.1,1.9-1,2.7-1.6,3.1v2c0.5,0.2,0.9,0.3,1.3,0.5c1.8,0.7,3.4,1.2,4.5,1.9c2-2.1,3-4.9,3-7.8C23.5,5.7,18.3,0.5,12,0.5z
	 M20.9,20.8l-0.7-0.7c-2.2,2.2-5.1,3.4-8.2,3.4c-3.1,0-6-1.2-8.2-3.4l-0.7,0.7c2.4,2.4,5.5,3.7,8.9,3.7
	C15.4,24.5,18.5,23.2,20.9,20.8z"/>
</svg>
